<svg width="70" height="25" viewBox="0 0 70 25" fill="#fff" xmlns="http://www.w3.org/2000/svg">
<path d="M33.0032 12.0466V22.6143H31.0292V18.0788H25.5611V22.6143H23.5872V12.0466H25.5611V16.4007H31.0292V12.0466H33.0032Z" fill="white"/>
<path d="M37.0647 22.1835C36.4067 21.8207 35.9075 21.3444 35.5218 20.7095C35.1588 20.0745 34.9773 19.3715 34.9773 18.5778C34.9773 17.7841 35.1588 17.0811 35.5218 16.4461C35.8849 15.8111 36.4067 15.3349 37.0647 14.9721C37.7227 14.6092 38.4487 14.4505 39.2655 14.4505C40.0824 14.4505 40.8311 14.6319 41.4891 14.9721C42.1471 15.3349 42.6462 15.8111 43.0319 16.4461C43.395 17.0811 43.5765 17.7841 43.5765 18.5778C43.5765 19.3715 43.395 20.0745 43.0319 20.7095C42.6689 21.3444 42.1471 21.8207 41.4891 22.1835C40.8311 22.5463 40.105 22.7051 39.2655 22.7051C38.4714 22.7278 37.7227 22.5463 37.0647 22.1835ZM41.0126 20.4147C41.4664 19.9611 41.6933 19.3488 41.6933 18.5778C41.6933 17.8068 41.4664 17.2171 41.0126 16.7409C40.5588 16.2874 39.9916 16.0379 39.2882 16.0379C38.5849 16.0379 38.0176 16.2647 37.5639 16.7409C37.1101 17.1945 36.8832 17.8068 36.8832 18.5778C36.8832 19.3488 37.1101 19.9384 37.5639 20.4147C38.0176 20.8682 38.5849 21.1177 39.2882 21.1177C39.9689 21.095 40.5588 20.8682 41.0126 20.4147Z" fill="white"/>
<path d="M58.007 15.3349C58.5969 15.9245 58.8919 16.8089 58.8919 17.9882V22.6144H57.0087V18.2376C57.0087 17.5346 56.8499 17.013 56.5322 16.6502C56.2146 16.2874 55.7608 16.1059 55.1936 16.1059C54.5583 16.1059 54.0591 16.31 53.6734 16.7409C53.2877 17.1491 53.1062 17.7614 53.1062 18.5324V22.6144H51.223V18.2376C51.223 17.5346 51.0641 17.013 50.7465 16.6502C50.4288 16.2874 49.9751 16.1059 49.4078 16.1059C48.7725 16.1059 48.2507 16.31 47.865 16.7182C47.4792 17.1264 47.2977 17.7387 47.2977 18.5097V22.5917H45.3918V14.5185H47.1843V15.539C47.4792 15.1762 47.865 14.904 48.3187 14.6999C48.7725 14.5185 49.2717 14.4051 49.8389 14.4051C50.4515 14.4051 50.9734 14.5185 51.4499 14.7453C51.9263 14.9721 52.2894 15.3122 52.5616 15.7431C52.902 15.3122 53.333 14.9947 53.8549 14.7453C54.3767 14.5185 54.9667 14.3824 55.602 14.3824C56.6003 14.4505 57.4171 14.7453 58.007 15.3349Z" fill="white"/>
<path d="M68.9425 19.1901H62.6122C62.7257 19.7797 63.0206 20.2559 63.4744 20.5961C63.9509 20.9362 64.5181 21.1177 65.2215 21.1177C66.1063 21.1177 66.8324 20.8228 67.4223 20.2332L68.4433 21.3898C68.0803 21.8207 67.6265 22.1608 67.0593 22.3649C66.5147 22.5917 65.8795 22.7051 65.1761 22.7051C64.2912 22.7051 63.5198 22.5237 62.8391 22.1835C62.1584 21.8207 61.6366 21.3444 61.2735 20.7095C60.9105 20.0745 60.729 19.3715 60.729 18.5778C60.729 17.7841 60.9105 17.0811 61.2735 16.4461C61.6366 15.8111 62.1357 15.3349 62.771 14.9721C63.4063 14.6092 64.1097 14.4505 64.9265 14.4505C65.7206 14.4505 66.424 14.6319 67.0366 14.9721C67.6492 15.3122 68.1484 15.8111 68.4887 16.4461C68.829 17.0811 69.0106 17.8068 69.0106 18.6231C68.9652 18.7592 68.9652 18.9406 68.9425 19.1901ZM63.361 16.5141C62.9525 16.877 62.6803 17.3532 62.5895 17.9428H67.1727C67.082 17.3532 66.8551 16.877 66.424 16.5141C66.0156 16.1513 65.4937 15.9699 64.8811 15.9699C64.2912 15.9699 63.7694 16.1513 63.361 16.5141Z" fill="white"/>
<path d="M7.8779 11.3848L7.87248 17.919H20.9369L20.9423 10.5403L10.9111 0L5.79258 3.75162V0.866176H3.18187V5.65721L0.00244141 7.99047L0.00785781 20.5284L6.84337 25H20.926V22.3961H7.62333L2.61315 19.1208L2.60773 9.30598L10.6024 3.45388L18.337 11.5797V15.3151H10.4778L10.4832 11.3902L7.8779 11.3848Z" fill="white"/>
</svg>
