<svg width="26" height="16" viewBox="0 0 26 16" fill="none" xmlns="http://www.w3.org/2000/svg">
<path d="M25.8329 1.87963C25.8329 1.17923 25.259 0.605286 24.5586 0.605286L2.22356 0.634469C1.88309 0.634469 1.56207 0.765794 1.32374 1.00899C1.08054 1.25218 0.949219 1.5732 0.949219 1.91367L0.968674 14.4625C0.968674 14.803 1.1 15.124 1.34319 15.3623C1.58639 15.6007 1.90254 15.7369 2.24301 15.7369L24.578 15.7077C25.2833 15.7077 25.8524 15.1337 25.8524 14.4285L25.8329 1.87963ZM23.1578 1.88449L13.4008 8.66476L3.62436 1.90881L23.1578 1.88449ZM17.5254 9.94396L23.3134 14.4333L3.46872 14.4625L9.2908 9.94396C9.56804 9.72995 9.62154 9.32625 9.40267 9.04901C9.18866 8.77177 8.78495 8.71826 8.50771 8.93714L2.23815 13.801L2.22356 2.49248L13.036 9.96828C13.143 10.0461 13.2695 10.0802 13.4008 10.0802C13.5273 10.0802 13.6537 10.0412 13.7656 9.96828L24.5586 2.46329L24.5732 13.801L18.3036 8.942C18.0264 8.72799 17.6227 8.77663 17.4086 9.05387C17.1995 9.33111 17.2481 9.72995 17.5254 9.94396Z" fill="white"/>
</svg>
